<svg width="45" height="45" viewBox="0 0 45 45" fill="none" xmlns="http://www.w3.org/2000/svg">
<path d="M37.3064 45H7.69513C3.44629 45 0 41.5546 0 37.3053V7.69456C0 3.4449 3.44629 3.8147e-06 7.69513 3.8147e-06H37.3064C41.5553 3.8147e-06 45 3.4449 45 7.69456V37.3053C45 41.5546 41.5553 45 37.3064 45Z" fill="#E3F0FF"/>
<path d="M38.8256 11.0768V33.0501C38.8256 33.5991 38.7487 34.1305 38.6042 34.6331C37.9413 36.9301 35.8775 38.6327 33.3953 38.7527C33.3031 38.7577 33.2108 38.7599 33.1154 38.7599H11.142C11.102 38.7599 11.0636 38.7599 11.0236 38.7577C10.9882 38.7577 10.9498 38.7568 10.9113 38.7547C8.42148 38.6564 6.3407 36.9619 5.66557 34.6671C5.51331 34.1543 5.43335 33.6116 5.43335 33.0501V11.0768C5.43335 7.92276 7.98933 5.36614 11.142 5.36614H33.1154C36.2697 5.36614 38.8256 7.92276 38.8256 11.0768Z" fill="#D2E4FF"/>
<path d="M18.8401 21.2578C18.8401 21.2578 18.713 25.1657 18.2132 26.9163L14.2551 29.6778L29.1561 31.9078L25.6031 26.9976C25.6031 26.9976 24.5297 21.7581 25.093 19.8198C25.6548 17.8817 18.8401 21.2578 18.8401 21.2578Z" fill="#FFB27D"/>
<path d="M18.8189 21.7977C18.8189 21.7964 19.9956 24.6343 22.2168 24.5718C24.4351 24.5093 24.9406 21.9992 24.9406 21.9992L18.8189 21.7977Z" fill="#ED985F"/>
<path d="M17.4929 19.501C17.4929 19.501 16.7767 15.9226 16.2762 14.8388C15.7771 13.7552 15.3593 8.92013 20.9021 8.66986C20.9021 8.66986 23.0283 8.92014 24.1963 8.2114C24.1963 8.2114 24.1963 8.92015 23.9054 9.17012C23.9054 9.17012 25.8219 8.7115 27.3221 10.3789C28.8222 12.0461 26.3225 17.8818 26.448 19.2573L17.4929 19.501Z" fill="#2C3A64"/>
<path d="M21.9616 23.4752C20.3544 23.4468 17.3943 21.3054 17.3943 18.6534V14.515C17.3943 13.5465 18.07 12.7542 18.8948 12.7542H25.0299C25.8562 12.7542 26.5319 13.5465 26.5319 14.515V18.4191C26.5319 21.1999 23.8073 23.5077 21.9616 23.4752Z" fill="#FFB27D"/>
<path d="M17.3933 16.7249C17.3933 16.7249 17.4021 14.2384 19.3715 13.856C21.3409 13.4737 25.7501 15.0679 26.3744 13.2548C27.0001 11.4417 17.8549 11.4729 17.3933 12.6295C16.9332 13.7863 17.3933 16.7249 17.3933 16.7249Z" fill="#2C3A64"/>
<path d="M31.9944 38.7604H11.1418C11.1014 38.7604 11.0625 38.7604 11.0222 38.7583C11.5502 33.9811 12.6827 28.2196 13.5878 27.8404C13.5878 27.8404 13.691 27.8022 13.8915 27.7401C13.893 27.7391 13.8959 27.7391 13.8959 27.7391C14.3687 27.5913 15.3725 27.3153 16.8296 27.0919C16.8326 27.0919 16.8385 27.0909 16.84 27.0909C17.2619 27.0259 17.7182 26.967 18.2134 26.9161C18.2134 26.9742 19.9278 29.48 21.9608 29.7612C23.2264 29.2608 24.2197 28.835 25.602 26.998C26.0583 27.0517 26.5265 27.1136 27.0038 27.1881C28.1646 27.3669 29.3898 27.61 30.6674 27.9325C30.82 27.9696 30.9711 28.009 31.1252 28.0503H31.1267C31.1865 28.0648 31.2479 28.0814 31.3077 28.0978C31.3077 28.0978 31.3227 28.1608 31.3601 28.5351C31.3601 28.5351 31.3601 28.5351 31.3601 28.5362C31.4378 29.3848 31.6249 31.8318 31.9944 38.7604Z" fill="#739AF0"/>
<path d="M13.7547 27.7656C13.7491 27.7669 13.7434 27.7677 13.7392 27.7698C13.6607 27.7873 13.554 27.8154 13.4207 27.8618C13.4123 27.8649 13.4039 27.8669 13.3969 27.869C13.3913 27.8722 13.3843 27.8742 13.3787 27.8752C13.3716 27.8784 13.366 27.8795 13.366 27.8795C12.2661 28.2609 9.51194 29.6586 5.66486 34.6672C6.34111 36.9622 8.42039 38.6566 10.9122 38.755C10.9486 38.7569 10.9879 38.7581 11.023 38.7581C11.0637 38.76 11.1016 38.76 11.1422 38.76H13.2159H16.6772C16.7389 35.2317 16.781 32.1624 16.8076 30.0586C16.8175 29.1293 16.8273 28.3891 16.8329 27.8795C16.8385 27.3687 16.8413 27.0906 16.8413 27.0906C16.8385 27.0906 16.8329 27.0916 16.8315 27.0916C15.7399 27.2219 14.4015 27.5795 13.7547 27.7656Z" fill="#2B478B"/>
<path d="M31.3076 28.0978C31.028 27.9934 30.8374 27.951 30.7422 27.9344C30.7391 27.9344 30.7375 27.9344 30.7375 27.9335C30.0016 27.7473 28.3375 27.3473 27.0038 27.187C27.0038 27.187 27.0038 27.187 27.0038 27.188C27.0038 27.2181 27.0084 27.8537 27.0161 28.9507V28.9516C27.0238 29.6547 27.0314 30.5479 27.0407 31.5921C27.0591 33.5365 27.0852 36.0063 27.1221 38.7603H31.0756H33.1146C33.2098 38.7603 33.302 38.7583 33.3942 38.753C35.8757 38.6332 37.9408 36.9305 38.603 34.6334C35.006 29.9224 32.437 28.5145 31.3076 28.0978Z" fill="#2B478B"/>
<path d="M25.8968 17.2936C25.7917 17.8169 25.3976 18.1517 24.7276 18.2882C24.2167 18.3926 23.7306 18.3358 23.7262 18.3346H23.7175C23.2212 18.3346 22.8679 18.0443 22.6067 17.4207C22.5731 17.3391 22.5001 17.1437 22.4811 16.9371C22.4811 16.9368 22.4811 16.9367 22.4811 16.9367C22.5162 16.9504 22.5512 16.9659 22.5848 16.9839C22.6198 17.0022 22.6621 16.9891 22.6811 16.9542C22.6986 16.9196 22.6855 16.8767 22.6519 16.8582C22.595 16.8282 22.5366 16.8052 22.4797 16.785C22.4797 16.7846 22.4797 16.7845 22.4797 16.784C22.4884 16.6878 22.5133 16.5959 22.5643 16.5163C22.6709 16.3571 22.8782 16.2755 23.1789 16.2755H24.9859C25.3056 16.2755 25.5859 16.3933 25.7537 16.598C25.9026 16.7799 25.9522 17.0208 25.8968 17.2936ZM21.4404 16.9494C21.4214 17.1511 21.3499 17.3412 21.3178 17.4207C21.0565 18.0443 20.7032 18.3346 20.2055 18.3346H20.1982C20.1924 18.3358 19.7063 18.3926 19.1969 18.2882C18.5254 18.1517 18.1328 17.8169 18.0262 17.2936C17.9707 17.0208 18.0218 16.7799 18.1692 16.598C18.3371 16.3933 18.6174 16.2755 18.9385 16.2755H20.7441C21.0463 16.2755 21.2535 16.3571 21.3586 16.5163C21.4141 16.5981 21.4389 16.6962 21.4433 16.7964C21.4433 16.7969 21.4433 16.7973 21.4433 16.7977C21.3528 16.8269 21.293 16.8526 21.2857 16.8566C21.2492 16.8729 21.2331 16.9151 21.2506 16.9507C21.2623 16.9768 21.2871 16.9922 21.3149 16.9922C21.3251 16.9922 21.3353 16.9901 21.344 16.9859C21.3455 16.985 21.382 16.9694 21.4404 16.9488C21.4404 16.9491 21.4404 16.9494 21.4404 16.9494ZM25.8457 16.5226C25.6545 16.2898 25.3421 16.1565 24.9859 16.1565H23.1789C22.8358 16.1565 22.595 16.2558 22.4651 16.45C22.4052 16.5411 22.3746 16.6435 22.3629 16.749C22.3629 16.7493 22.3629 16.7497 22.3629 16.7499C22.0607 16.6747 21.7659 16.7132 21.5615 16.7645V16.7633C21.5499 16.6528 21.5207 16.5454 21.4579 16.45C21.328 16.2558 21.0886 16.1565 20.7441 16.1565H18.9385C18.5823 16.1565 18.2685 16.2898 18.0787 16.5226C17.905 16.7335 17.8481 17.0084 17.9094 17.3175C18.1152 18.3378 19.2917 18.4682 19.8785 18.4682C20.0595 18.4682 20.1851 18.4556 20.2084 18.4536C20.7587 18.4526 21.1455 18.1385 21.4272 17.4664C21.474 17.3526 21.5513 17.1365 21.563 16.9122V16.912C21.7571 16.8599 22.0578 16.8132 22.36 16.8952V16.8955C22.3687 17.1262 22.4476 17.3495 22.4972 17.4664C22.7789 18.1385 23.1657 18.4526 23.716 18.4536C23.7394 18.4556 23.8635 18.4682 24.0459 18.4682C24.6327 18.4682 25.8077 18.3378 26.015 17.3175C26.0763 17.0084 26.0179 16.7335 25.8457 16.5226Z" fill="#B64C41"/>
</svg>
