<svg width="231" height="18" viewBox="0 0 231 18" fill="none" xmlns="http://www.w3.org/2000/svg">
<path d="M9.196 17.22C8.02267 17.22 6.93 17.0293 5.918 16.648C4.92067 16.252 4.048 15.702 3.3 14.998C2.56667 14.2793 1.99467 13.436 1.584 12.468C1.17333 11.5 0.968 10.444 0.968 9.3C0.968 8.156 1.17333 7.1 1.584 6.132C1.99467 5.164 2.574 4.328 3.322 3.624C4.07 2.90533 4.94267 2.35533 5.94 1.974C6.93733 1.578 8.03 1.38 9.218 1.38C10.4793 1.38 11.6307 1.6 12.672 2.04C13.7133 2.46533 14.5933 3.10333 15.312 3.954L13.464 5.692C12.9067 5.09067 12.2833 4.64333 11.594 4.35C10.9047 4.042 10.1567 3.888 9.35 3.888C8.54333 3.888 7.80267 4.02 7.128 4.284C6.468 4.548 5.88867 4.922 5.39 5.406C4.906 5.89 4.52467 6.462 4.246 7.122C3.982 7.782 3.85 8.508 3.85 9.3C3.85 10.092 3.982 10.818 4.246 11.478C4.52467 12.138 4.906 12.71 5.39 13.194C5.88867 13.678 6.468 14.052 7.128 14.316C7.80267 14.58 8.54333 14.712 9.35 14.712C10.1567 14.712 10.9047 14.5653 11.594 14.272C12.2833 13.964 12.9067 13.502 13.464 12.886L15.312 14.646C14.5933 15.482 13.7133 16.12 12.672 16.56C11.6307 17 10.472 17.22 9.196 17.22ZM22.4381 17.154C21.4408 17.154 20.5608 16.9707 19.7981 16.604C19.0354 16.2227 18.4414 15.6507 18.0161 14.888C17.5908 14.1107 17.3781 13.1353 17.3781 11.962V5.252H20.1281V11.588C20.1281 12.644 20.3628 13.436 20.8321 13.964C21.3161 14.4773 21.9981 14.734 22.8781 14.734C23.5234 14.734 24.0808 14.602 24.5501 14.338C25.0341 14.074 25.4081 13.678 25.6721 13.15C25.9508 12.622 26.0901 11.9693 26.0901 11.192V5.252H28.8401V17H26.2221V13.832L26.6841 14.8C26.2881 15.5627 25.7088 16.1493 24.9461 16.56C24.1834 16.956 23.3474 17.154 22.4381 17.154ZM38.9527 17.154C37.9554 17.154 37.0681 16.934 36.2907 16.494C35.5134 16.054 34.8974 15.394 34.4427 14.514C34.0027 13.6193 33.7827 12.49 33.7827 11.126C33.7827 9.74733 34.0101 8.618 34.4647 7.738C34.9341 6.858 35.5574 6.20533 36.3347 5.78C37.1267 5.34 37.9994 5.12 38.9527 5.12C40.1114 5.12 41.1307 5.36933 42.0107 5.868C42.9054 6.36667 43.6094 7.06333 44.1227 7.958C44.6507 8.85267 44.9147 9.90867 44.9147 11.126C44.9147 12.3433 44.6507 13.3993 44.1227 14.294C43.6094 15.1887 42.9054 15.8927 42.0107 16.406C41.1307 16.9047 40.1114 17.154 38.9527 17.154ZM32.4407 17V0.675999H35.1907V7.98L34.9707 11.104L35.0587 14.228V17H32.4407ZM38.6447 14.8C39.3047 14.8 39.8914 14.6533 40.4047 14.36C40.9327 14.0667 41.3507 13.6413 41.6587 13.084C41.9667 12.5267 42.1207 11.874 42.1207 11.126C42.1207 10.3633 41.9667 9.71067 41.6587 9.168C41.3507 8.61067 40.9327 8.18533 40.4047 7.892C39.8914 7.59867 39.3047 7.452 38.6447 7.452C37.9847 7.452 37.3907 7.59867 36.8627 7.892C36.3347 8.18533 35.9167 8.61067 35.6087 9.168C35.3007 9.71067 35.1467 10.3633 35.1467 11.126C35.1467 11.874 35.3007 12.5267 35.6087 13.084C35.9167 13.6413 36.3347 14.0667 36.8627 14.36C37.3907 14.6533 37.9847 14.8 38.6447 14.8ZM53.0448 17.154C51.7394 17.154 50.5954 16.8973 49.6128 16.384C48.6448 15.856 47.8894 15.1373 47.3468 14.228C46.8188 13.3187 46.5548 12.2847 46.5548 11.126C46.5548 9.95267 46.8114 8.91867 47.3248 8.024C47.8528 7.11467 48.5714 6.40333 49.4808 5.89C50.4048 5.37667 51.4534 5.12 52.6268 5.12C53.7708 5.12 54.7901 5.36933 55.6848 5.868C56.5794 6.36667 57.2834 7.07067 57.7968 7.98C58.3101 8.88933 58.5668 9.96 58.5668 11.192C58.5668 11.3093 58.5594 11.4413 58.5448 11.588C58.5448 11.7347 58.5374 11.874 58.5228 12.006H48.7328V10.18H57.0708L55.9928 10.752C56.0074 10.0773 55.8681 9.48333 55.5748 8.97C55.2814 8.45667 54.8781 8.05333 54.3648 7.76C53.8661 7.46667 53.2868 7.32 52.6268 7.32C51.9521 7.32 51.3581 7.46667 50.8448 7.76C50.3461 8.05333 49.9501 8.464 49.6568 8.992C49.3781 9.50533 49.2388 10.114 49.2388 10.818V11.258C49.2388 11.962 49.4001 12.5853 49.7228 13.128C50.0454 13.6707 50.5001 14.0887 51.0868 14.382C51.6734 14.6753 52.3481 14.822 53.1108 14.822C53.7708 14.822 54.3648 14.7193 54.8928 14.514C55.4208 14.3087 55.8901 13.986 56.3008 13.546L57.7748 15.24C57.2468 15.856 56.5794 16.3327 55.7728 16.67C54.9808 16.9927 54.0714 17.154 53.0448 17.154ZM89.7243 17V1.6H92.5843V14.58H100.636V17H89.7243ZM108.045 17.154C106.739 17.154 105.595 16.8973 104.613 16.384C103.645 15.856 102.889 15.1373 102.347 14.228C101.819 13.3187 101.555 12.2847 101.555 11.126C101.555 9.95267 101.811 8.91867 102.325 8.024C102.853 7.11467 103.571 6.40333 104.481 5.89C105.405 5.37667 106.453 5.12 107.627 5.12C108.771 5.12 109.79 5.36933 110.685 5.868C111.579 6.36667 112.283 7.07067 112.797 7.98C113.31 8.88933 113.567 9.96 113.567 11.192C113.567 11.3093 113.559 11.4413 113.545 11.588C113.545 11.7347 113.537 11.874 113.523 12.006H103.733V10.18H112.071L110.993 10.752C111.007 10.0773 110.868 9.48333 110.575 8.97C110.281 8.45667 109.878 8.05333 109.365 7.76C108.866 7.46667 108.287 7.32 107.627 7.32C106.952 7.32 106.358 7.46667 105.845 7.76C105.346 8.05333 104.95 8.464 104.657 8.992C104.378 9.50533 104.239 10.114 104.239 10.818V11.258C104.239 11.962 104.4 12.5853 104.723 13.128C105.045 13.6707 105.5 14.0887 106.087 14.382C106.673 14.6753 107.348 14.822 108.111 14.822C108.771 14.822 109.365 14.7193 109.893 14.514C110.421 14.3087 110.89 13.986 111.301 13.546L112.775 15.24C112.247 15.856 111.579 16.3327 110.773 16.67C109.981 16.9927 109.071 17.154 108.045 17.154ZM123.124 17V14.624L122.97 14.118V9.96C122.97 9.15333 122.728 8.53 122.244 8.09C121.76 7.63533 121.027 7.408 120.044 7.408C119.384 7.408 118.731 7.51067 118.086 7.716C117.455 7.92133 116.92 8.20733 116.48 8.574L115.402 6.572C116.033 6.088 116.781 5.72867 117.646 5.494C118.526 5.24467 119.435 5.12 120.374 5.12C122.075 5.12 123.388 5.53067 124.312 6.352C125.251 7.15867 125.72 8.41267 125.72 10.114V17H123.124ZM119.428 17.154C118.548 17.154 117.778 17.0073 117.118 16.714C116.458 16.406 115.945 15.988 115.578 15.46C115.226 14.9173 115.05 14.3087 115.05 13.634C115.05 12.974 115.204 12.38 115.512 11.852C115.835 11.324 116.355 10.906 117.074 10.598C117.793 10.29 118.746 10.136 119.934 10.136H123.344V11.962H120.132C119.193 11.962 118.563 12.116 118.24 12.424C117.917 12.7173 117.756 13.084 117.756 13.524C117.756 14.0227 117.954 14.4187 118.35 14.712C118.746 15.0053 119.296 15.152 120 15.152C120.675 15.152 121.276 14.998 121.804 14.69C122.347 14.382 122.735 13.9273 122.97 13.326L123.432 14.976C123.168 15.6653 122.691 16.2007 122.002 16.582C121.327 16.9633 120.469 17.154 119.428 17.154ZM134.243 17.154C133.113 17.154 132.094 16.9047 131.185 16.406C130.29 15.8927 129.586 15.1887 129.073 14.294C128.559 13.3993 128.303 12.3433 128.303 11.126C128.303 9.90867 128.559 8.85267 129.073 7.958C129.586 7.06333 130.29 6.36667 131.185 5.868C132.094 5.36933 133.113 5.12 134.243 5.12C135.225 5.12 136.105 5.34 136.883 5.78C137.66 6.20533 138.276 6.858 138.731 7.738C139.185 8.618 139.413 9.74733 139.413 11.126C139.413 12.49 139.193 13.6193 138.753 14.514C138.313 15.394 137.704 16.054 136.927 16.494C136.149 16.934 135.255 17.154 134.243 17.154ZM134.573 14.8C135.233 14.8 135.819 14.6533 136.333 14.36C136.861 14.0667 137.279 13.6413 137.587 13.084C137.909 12.5267 138.071 11.874 138.071 11.126C138.071 10.3633 137.909 9.71067 137.587 9.168C137.279 8.61067 136.861 8.18533 136.333 7.892C135.819 7.59867 135.233 7.452 134.573 7.452C133.913 7.452 133.319 7.59867 132.791 7.892C132.277 8.18533 131.859 8.61067 131.537 9.168C131.229 9.71067 131.075 10.3633 131.075 11.126C131.075 11.874 131.229 12.5267 131.537 13.084C131.859 13.6413 132.277 14.0667 132.791 14.36C133.319 14.6533 133.913 14.8 134.573 14.8ZM138.137 17V14.228L138.247 11.104L138.027 7.98V0.675999H140.755V17H138.137ZM149.896 17.154C148.591 17.154 147.447 16.8973 146.464 16.384C145.496 15.856 144.741 15.1373 144.198 14.228C143.67 13.3187 143.406 12.2847 143.406 11.126C143.406 9.95267 143.663 8.91867 144.176 8.024C144.704 7.11467 145.423 6.40333 146.332 5.89C147.256 5.37667 148.305 5.12 149.478 5.12C150.622 5.12 151.642 5.36933 152.536 5.868C153.431 6.36667 154.135 7.07067 154.648 7.98C155.162 8.88933 155.418 9.96 155.418 11.192C155.418 11.3093 155.411 11.4413 155.396 11.588C155.396 11.7347 155.389 11.874 155.374 12.006H145.584V10.18H153.922L152.844 10.752C152.859 10.0773 152.72 9.48333 152.426 8.97C152.133 8.45667 151.73 8.05333 151.216 7.76C150.718 7.46667 150.138 7.32 149.478 7.32C148.804 7.32 148.21 7.46667 147.696 7.76C147.198 8.05333 146.802 8.464 146.508 8.992C146.23 9.50533 146.09 10.114 146.09 10.818V11.258C146.09 11.962 146.252 12.5853 146.574 13.128C146.897 13.6707 147.352 14.0887 147.938 14.382C148.525 14.6753 149.2 14.822 149.962 14.822C150.622 14.822 151.216 14.7193 151.744 14.514C152.272 14.3087 152.742 13.986 153.152 13.546L154.626 15.24C154.098 15.856 153.431 16.3327 152.624 16.67C151.832 16.9927 150.923 17.154 149.896 17.154ZM158.06 17V5.252H160.678V8.486L160.37 7.54C160.722 6.748 161.272 6.14667 162.02 5.736C162.783 5.32533 163.729 5.12 164.858 5.12V7.738C164.741 7.70867 164.631 7.694 164.528 7.694C164.425 7.67933 164.323 7.672 164.22 7.672C163.179 7.672 162.35 7.98 161.734 8.596C161.118 9.19733 160.81 10.0993 160.81 11.302V17H158.06ZM173.703 17.154C172.705 17.154 171.818 16.934 171.041 16.494C170.263 16.054 169.647 15.394 169.193 14.514C168.753 13.6193 168.533 12.49 168.533 11.126C168.533 9.74733 168.76 8.618 169.215 7.738C169.684 6.858 170.307 6.20533 171.085 5.78C171.877 5.34 172.749 5.12 173.703 5.12C174.861 5.12 175.881 5.36933 176.761 5.868C177.655 6.36667 178.359 7.06333 178.873 7.958C179.401 8.85267 179.665 9.90867 179.665 11.126C179.665 12.3433 179.401 13.3993 178.873 14.294C178.359 15.1887 177.655 15.8927 176.761 16.406C175.881 16.9047 174.861 17.154 173.703 17.154ZM167.191 17V0.675999H169.941V7.98L169.721 11.104L169.809 14.228V17H167.191ZM173.395 14.8C174.055 14.8 174.641 14.6533 175.155 14.36C175.683 14.0667 176.101 13.6413 176.409 13.084C176.717 12.5267 176.871 11.874 176.871 11.126C176.871 10.3633 176.717 9.71067 176.409 9.168C176.101 8.61067 175.683 8.18533 175.155 7.892C174.641 7.59867 174.055 7.452 173.395 7.452C172.735 7.452 172.141 7.59867 171.613 7.892C171.085 8.18533 170.667 8.61067 170.359 9.168C170.051 9.71067 169.897 10.3633 169.897 11.126C169.897 11.874 170.051 12.5267 170.359 13.084C170.667 13.6413 171.085 14.0667 171.613 14.36C172.141 14.6533 172.735 14.8 173.395 14.8ZM187.553 17.154C186.35 17.154 185.279 16.8973 184.341 16.384C183.402 15.856 182.661 15.1373 182.119 14.228C181.576 13.3187 181.305 12.2847 181.305 11.126C181.305 9.95267 181.576 8.91867 182.119 8.024C182.661 7.11467 183.402 6.40333 184.341 5.89C185.279 5.37667 186.35 5.12 187.553 5.12C188.77 5.12 189.848 5.37667 190.787 5.89C191.74 6.40333 192.481 7.10733 193.009 8.002C193.551 8.89667 193.823 9.938 193.823 11.126C193.823 12.2847 193.551 13.3187 193.009 14.228C192.481 15.1373 191.74 15.856 190.787 16.384C189.848 16.8973 188.77 17.154 187.553 17.154ZM187.553 14.8C188.227 14.8 188.829 14.6533 189.357 14.36C189.885 14.0667 190.295 13.6413 190.589 13.084C190.897 12.5267 191.051 11.874 191.051 11.126C191.051 10.3633 190.897 9.71067 190.589 9.168C190.295 8.61067 189.885 8.18533 189.357 7.892C188.829 7.59867 188.235 7.452 187.575 7.452C186.9 7.452 186.299 7.59867 185.771 7.892C185.257 8.18533 184.847 8.61067 184.539 9.168C184.231 9.71067 184.077 10.3633 184.077 11.126C184.077 11.874 184.231 12.5267 184.539 13.084C184.847 13.6413 185.257 14.0667 185.771 14.36C186.299 14.6533 186.893 14.8 187.553 14.8ZM203.54 17V14.624L203.386 14.118V9.96C203.386 9.15333 203.144 8.53 202.66 8.09C202.176 7.63533 201.443 7.408 200.46 7.408C199.8 7.408 199.147 7.51067 198.502 7.716C197.871 7.92133 197.336 8.20733 196.896 8.574L195.818 6.572C196.449 6.088 197.197 5.72867 198.062 5.494C198.942 5.24467 199.851 5.12 200.79 5.12C202.491 5.12 203.804 5.53067 204.728 6.352C205.667 7.15867 206.136 8.41267 206.136 10.114V17H203.54ZM199.844 17.154C198.964 17.154 198.194 17.0073 197.534 16.714C196.874 16.406 196.361 15.988 195.994 15.46C195.642 14.9173 195.466 14.3087 195.466 13.634C195.466 12.974 195.62 12.38 195.928 11.852C196.251 11.324 196.771 10.906 197.49 10.598C198.209 10.29 199.162 10.136 200.35 10.136H203.76V11.962H200.548C199.609 11.962 198.979 12.116 198.656 12.424C198.333 12.7173 198.172 13.084 198.172 13.524C198.172 14.0227 198.37 14.4187 198.766 14.712C199.162 15.0053 199.712 15.152 200.416 15.152C201.091 15.152 201.692 14.998 202.22 14.69C202.763 14.382 203.151 13.9273 203.386 13.326L203.848 14.976C203.584 15.6653 203.107 16.2007 202.418 16.582C201.743 16.9633 200.885 17.154 199.844 17.154ZM209.665 17V5.252H212.283V8.486L211.975 7.54C212.327 6.748 212.877 6.14667 213.625 5.736C214.388 5.32533 215.334 5.12 216.463 5.12V7.738C216.346 7.70867 216.236 7.694 216.133 7.694C216.031 7.67933 215.928 7.672 215.825 7.672C214.784 7.672 213.955 7.98 213.339 8.596C212.723 9.19733 212.415 10.0993 212.415 11.302V17H209.665ZM223.661 17.154C222.531 17.154 221.512 16.9047 220.603 16.406C219.708 15.8927 219.004 15.1887 218.491 14.294C217.977 13.3993 217.721 12.3433 217.721 11.126C217.721 9.90867 217.977 8.85267 218.491 7.958C219.004 7.06333 219.708 6.36667 220.603 5.868C221.512 5.36933 222.531 5.12 223.661 5.12C224.643 5.12 225.523 5.34 226.301 5.78C227.078 6.20533 227.694 6.858 228.149 7.738C228.603 8.618 228.831 9.74733 228.831 11.126C228.831 12.49 228.611 13.6193 228.171 14.514C227.731 15.394 227.122 16.054 226.345 16.494C225.567 16.934 224.673 17.154 223.661 17.154ZM223.991 14.8C224.651 14.8 225.237 14.6533 225.751 14.36C226.279 14.0667 226.697 13.6413 227.005 13.084C227.327 12.5267 227.489 11.874 227.489 11.126C227.489 10.3633 227.327 9.71067 227.005 9.168C226.697 8.61067 226.279 8.18533 225.751 7.892C225.237 7.59867 224.651 7.452 223.991 7.452C223.331 7.452 222.737 7.59867 222.209 7.892C221.695 8.18533 221.277 8.61067 220.955 9.168C220.647 9.71067 220.493 10.3633 220.493 11.126C220.493 11.874 220.647 12.5267 220.955 13.084C221.277 13.6413 221.695 14.0667 222.209 14.36C222.737 14.6533 223.331 14.8 223.991 14.8ZM227.555 17V14.228L227.665 11.104L227.445 7.98V0.675999H230.173V17H227.555Z" fill="#030327"/>
<path d="M62.8363 17V2.7L64.0903 3.998H59.5803V1.6H65.6963V17H62.8363ZM73.9432 1.38C75.3512 1.38 76.5465 1.68067 77.5292 2.282C78.5265 2.86867 79.2892 3.72667 79.8172 4.856C80.3452 5.98533 80.6092 7.37867 80.6092 9.036C80.6092 10.796 80.2865 12.2847 79.6412 13.502C79.0105 14.7193 78.1305 15.6433 77.0012 16.274C75.8719 16.9047 74.5592 17.22 73.0632 17.22C72.2859 17.22 71.5452 17.1393 70.8412 16.978C70.1372 16.8167 69.5285 16.5673 69.0152 16.23L70.0712 14.074C70.4965 14.3527 70.9585 14.5507 71.4572 14.668C71.9559 14.7707 72.4692 14.822 72.9972 14.822C74.4492 14.822 75.6005 14.3747 76.4512 13.48C77.3019 12.5853 77.7272 11.2653 77.7272 9.52C77.7272 9.24133 77.7199 8.91867 77.7052 8.552C77.6905 8.17067 77.6392 7.78933 77.5512 7.408L78.4312 8.376C78.1819 8.97733 77.8225 9.48333 77.3532 9.894C76.8839 10.29 76.3339 10.5907 75.7032 10.796C75.0725 11.0013 74.3759 11.104 73.6132 11.104C72.6159 11.104 71.7139 10.9133 70.9072 10.532C70.1152 10.136 69.4845 9.586 69.0152 8.882C68.5459 8.16333 68.3112 7.32733 68.3112 6.374C68.3112 5.34733 68.5605 4.46733 69.0592 3.734C69.5579 2.986 70.2325 2.40667 71.0832 1.996C71.9485 1.58533 72.9019 1.38 73.9432 1.38ZM74.0972 3.624C73.5105 3.624 72.9899 3.734 72.5352 3.954C72.0805 4.15933 71.7212 4.46 71.4572 4.856C71.2079 5.23733 71.0832 5.69933 71.0832 6.242C71.0832 7.04867 71.3619 7.68667 71.9192 8.156C72.4765 8.62533 73.2245 8.86 74.1632 8.86C74.7792 8.86 75.3219 8.75 75.7912 8.53C76.2605 8.29533 76.6272 7.98 76.8912 7.584C77.1552 7.17333 77.2872 6.71867 77.2872 6.22C77.2872 5.736 77.1625 5.30333 76.9132 4.922C76.6639 4.526 76.3045 4.21067 75.8352 3.976C75.3659 3.74133 74.7865 3.624 74.0972 3.624Z" fill="#F99746"/>
</svg>
